<svg width="80" height="30" viewBox="0 0 403 177" fill="none" xmlns="http://www.w3.org/2000/svg"><g clip-path="url(#clip0_102_2)"><path d="M8.69789 53.4721C4.07493 51.5143 1.87141 46.1477 4.32794 41.7693C10.2675 31.1829 18.5 22.01 28.4651 14.9474C38.4301 7.88483 49.8124 3.156 61.7686 1.05897C66.7136 0.191664 71.0471 4.04861 71.3629 9.05913V9.05913C71.6787 14.0696 67.8486 18.3226 62.9333 19.3451C54.3467 21.1312 46.1861 24.6717 38.9778 29.7805C31.7696 34.8893 25.7255 41.4161 21.1956 48.9261C18.6025 53.2251 13.3208 55.43 8.69789 53.4721V53.4721Z" fill="#9FE870"></path><path fill-rule="evenodd" clip-rule="evenodd" d="M188.761 40C188.761 33.3726 183.388 28 176.761 28V28C170.134 28 164.761 33.3726 164.761 40V122C164.761 122 164.761 122 164.761 122V122C164.762 122 164.762 122 164.762 122C164.649 129.82 161.881 137.375 156.906 143.422C154.392 146.479 151.39 149.056 148.049 151.066C142.371 154.482 137.944 160.629 139.221 167.131V167.131C140.498 173.633 146.882 177.979 152.987 175.405C161.661 171.748 169.381 166.028 175.437 158.668C183.945 148.326 188.644 135.382 188.759 122.001C188.759 122 188.759 122 188.76 122V122C188.761 122 188.761 122 188.761 121.999V121.5V40Z" fill="#163300"></path><path fill-rule="evenodd" clip-rule="evenodd" d="M219 28C212.373 28 207 33.3726 207 40V132C207 138.627 212.373 144 219 144C225.627 144 231 138.627 231 132V109.502C235.31 109.583 239.57 110.471 243.556 112.122C247.742 113.856 251.546 116.398 254.75 119.602C257.954 122.806 260.496 126.609 262.23 130.796C262.428 131.274 262.615 131.757 262.791 132.242C265.049 138.472 270.228 144 276.854 144C283.48 144 288.975 138.573 287.626 132.086C286.882 128.51 285.803 125.004 284.399 121.613C281.459 114.515 277.15 108.066 271.718 102.634C267.225 98.1418 262.037 94.4175 256.362 91.6005C258.955 89.0703 261.404 86.2716 263.682 83.2201C272.457 71.4665 278.169 56.6733 280.186 40.8525C281.086 33.7928 275.231 28 268.114 28C260.997 28 255.377 33.8372 253.844 40.787C252.223 48.139 249.213 54.9447 245.013 60.5699C241.074 65.8466 236.269 69.8419 231 72.321V40C231 33.3726 225.627 28 219 28Z" fill="#163300"></path><path fill-rule="evenodd" clip-rule="evenodd" d="M352.748 143.487C359.312 142.581 363.111 135.855 361.414 129.45C359.716 123.045 353.204 119.768 346.59 120.178C343.975 120.341 341.381 120.14 338.86 119.323C332.553 117.278 326.968 113.46 322.774 108.324C318.58 103.188 315.955 96.9523 315.213 90.3633C314.47 83.7744 315.642 77.1111 318.588 71.1707C321.534 65.2304 326.129 60.2646 331.823 56.8676C337.517 53.4707 344.07 51.7864 350.697 52.0163C354.765 52.1575 358.756 53.0166 362.491 54.5347L336.672 80.799C336.051 81.4314 336.499 82.5 337.385 82.5H345.5L322 106L367.292 84.7407C368.239 84.2958 367.953 82.8781 366.907 82.8363L358.5 82.5L389.17 69.6095C390.29 69.4966 391.404 69.2266 392.493 68.7777C398.619 66.2524 401.631 59.141 397.911 53.6576C393.896 47.7389 388.81 42.5781 382.88 38.4584C373.648 32.0437 362.764 28.425 351.529 28.0352C340.294 27.6454 329.184 30.501 319.53 36.2603C309.875 42.0197 302.085 50.4388 297.09 60.5102C292.096 70.5817 290.109 81.8789 291.368 93.05C292.627 104.221 297.077 114.793 304.188 123.501C311.298 132.208 320.767 138.683 331.461 142.149C338.358 144.385 345.576 144.477 352.748 143.487Z" fill="#163300"></path><path d="M336.672 80.799L364 53C369.6 55.8 373.5 57 393 68L358.5 82.5L366.945 82.8378C367.989 82.8796 368.278 84.2924 367.334 84.7404L321.5 106.5L345.5 82.5H337.385C336.499 82.5 336.051 81.4314 336.672 80.799Z" fill="url(#paint0_linear_102_2)"></path><path fill-rule="evenodd" clip-rule="evenodd" d="M81 28C48.9675 28 23 53.9675 23 86C23 118.033 48.9675 144 81 144H132C135.866 144 139 140.866 139 137V86C139 53.9675 113.033 28 81 28ZM82 120C100.778 120 116 104.778 116 86C116 67.2223 100.778 52 82 52C63.2223 52 48 67.2223 48 86C48 104.778 63.2223 120 82 120Z" fill="#163300"></path></g><defs><linearGradient id="paint0_linear_102_2" x1="368" y1="63" x2="345" y2="99.5" gradientUnits="userSpaceOnUse"><stop stop-color="#9FE870" stop-opacity="0"></stop><stop offset="1" stop-color="#9FE870"></stop></linearGradient><clipPath id="clip0_102_2"><rect width="403" height="177" fill="white"></rect></clipPath></defs></svg>